<?xml version="1.0" encoding="UTF-8" standalone="no"?><!DOCTYPE svg PUBLIC "-//W3C//DTD SVG 1.1//EN" "http://www.w3.org/Graphics/SVG/1.1/DTD/svg11.dtd"><svg width="100%" height="100%" viewBox="0 0 1674 1410" version="1.1" xmlns="http://www.w3.org/2000/svg" xmlns:xlink="http://www.w3.org/1999/xlink" xml:space="preserve" xmlns:serif="http://www.serif.com/" style="fill-rule:evenodd;clip-rule:evenodd;stroke-linejoin:round;stroke-miterlimit:2;"><path d="M593.307,12.294c18.333,-4.875 36.792,-10.583 56,-9.75c109.792,-0.167 219.583,-0.083 329.375,-0.083c36.875,-1.458 73.292,12.958 110.083,4.917c18.5,-6 39.5,-11.375 58.208,-3.25c14.875,11.292 27,28.208 27.75,47.417c3.333,38.083 3.25,76.75 -2.958,114.542c-6.167,17.875 -4.917,37.25 -11,55.167c-2.125,6.292 -1.375,12.958 -1.5,19.458c34.375,6.542 70.042,-0.917 103.833,8.958c55.083,5.542 110.583,1.25 165.833,3.125c11.25,0.292 21.875,4.542 32.958,6.083c41.25,3.208 83.542,11.083 120.208,31.25c41.458,21.75 57.417,71.083 60.667,114.875c9.292,26.083 3.042,54.167 9.958,80.667c9.083,30.042 0,62.125 8.542,92.333c6.417,19.958 2.875,41.125 4.833,61.625c1.125,15.333 8.75,29.583 7.708,45.208c-0.5,27.583 1.167,55.333 -0.917,82.875c-6.458,23.667 -18.75,45.833 -35.25,63.958c-29.583,26.667 -69.25,36.667 -103.875,54.708c-1.833,18.583 -3.917,37.708 0.583,56.125c6.083,20.917 15.333,41.333 15.208,63.542c-0.125,15.542 7,29.917 7.333,45.375c0.75,19.542 -0.458,39.167 0.875,58.708c3.375,49.542 1.083,99.375 -2.417,148.833c-10.833,25.792 -25.542,50.208 -44.833,70.583c-4.75,23.375 -11.25,49.458 -32.667,63.333c-14.917,8.542 -31.583,15.625 -48.958,16.333c-116.75,0.333 -233.542,0.25 -350.292,0.25c-30.542,-0.458 -61.167,0.833 -91.583,-2.083c-48.083,-9.25 -97.292,-5.417 -145.917,-6.25c-83.292,2.625 -166.708,3.5 -250,0.042c-94.5,-0.042 -189,-0.083 -283.5,0.042c-27.25,0.708 -55.333,-5.375 -78.333,-20.375c-15.583,-7.833 -34.5,-11.042 -46.25,-25.042c-9.125,-11.708 -17.25,-25.75 -16.333,-41.125c0.708,-24.792 -2.833,-50.333 4.75,-74.375c7.042,-24.375 -0.167,-50.542 8.125,-74.625c6.125,-20.917 1.292,-43.25 7.958,-64.042c7.625,-46.75 15.375,-93.625 28.417,-139.292c-60.25,-28.417 -124.625,-56.292 -168,-108.958c-22.75,-32.292 -38,-70.583 -41.125,-110.083c-1.042,-12.542 -6.5,-24.292 -6.5,-36.958c-0.708,-30.667 0.083,-61.375 -0.25,-92.042c0.208,-17.917 -1.292,-36.208 3.708,-53.625c3.75,-13.875 3.458,-28.333 4.792,-42.5c8.667,-52.542 25.333,-104.167 53.292,-149.792c12.792,-24.958 35.042,-42.667 54.25,-62.417c44.375,-39.167 103.125,-56.208 160.458,-65.167c15.542,-5.292 32,-4.875 48.208,-6.083c15.333,-0.833 29.708,-7.667 45.208,-7.125c37.958,-0.417 76.333,0.75 113.833,-6.292c19.542,-2.25 39.292,-1.417 58.958,-2.458c-0.875,-34.958 -1.417,-69.917 -0.792,-104.875c0.208,-15.5 6.375,-30.083 7.667,-45.5c2.625,-24.875 19.708,-48.042 43.667,-56.167m352.333,55.333c-11.875,0.75 -23.917,0.875 -35.5,3.875c-29.375,9.5 -61.042,-0.083 -90.5,9.25c-16.125,5.125 -33.208,2.75 -49.75,4.667c-13.958,1.042 -26.958,7.292 -41.042,7.375c-24.458,-0.125 -47.333,9.625 -71.708,10.542c-11.125,36.917 -7.583,76.167 -8.667,114.208c39.125,3.167 78.458,1.5 117.625,0.25c47.208,-0.75 94.458,-0.208 141.667,-0.125c55.958,2.667 112.042,0.542 168,2.833c-2.833,-15.917 -10,-31.125 -9.083,-47.625c0.417,-25 -0.875,-50.083 0.625,-75.042c2.875,-12.542 8.667,-24.5 7.667,-37.708c-26.583,-2.583 -53.292,-1 -79.917,-0.583c-16.958,-0.292 -32.583,7.708 -49.417,8.083m-102.917,205.333c-45.25,7.167 -91.708,-2.667 -136.75,6.458c-32.083,8.292 -65.5,2.25 -98.125,5.042c-5.667,-0.208 -9.417,4.375 -13.417,7.583c-23.25,0.625 -46.5,1.667 -69.75,2.417c-8.792,-0.042 -16.25,5.792 -24.917,6.125c-20.708,2 -42.375,-2.5 -62.375,4.708c-17.458,7.958 -37.625,0.875 -55.458,7.583c-16.125,8.333 -35.583,2.542 -51.625,11.333c-23.042,3.833 -44.75,12.625 -66.625,20.5c-31.208,13.792 -58.792,37.208 -74.125,68c-13.792,25.917 -23.167,54.167 -25.583,83.417c-9.625,20.625 -4.458,43.875 -4.958,65.792c-4.625,24 -0.75,48.833 -2,73.208c-1.542,30.667 3.792,62.5 20,88.958c11.833,10.625 25.792,18.625 39.25,27.042c51.333,28.417 102.333,57.625 155.667,82.208c175.75,78.833 360.833,133.667 541.125,200.833c36.417,11.875 76,26.333 114.125,12.708c80.583,-15.5 152.625,-57.375 221.167,-100.625c61.125,-41.125 121.375,-83.583 180.792,-127.208c13.25,-10.083 29.958,-17.75 37.25,-33.667c5.542,-9.708 7.958,-21.583 16.458,-29.292c9.083,-5.25 19.583,-7.542 28.5,-13.083c14.958,-29.25 15.208,-63.25 12.708,-95.417c0.375,-34.875 -0.458,-70.167 7.167,-104.417c1.458,-44.125 2.333,-88.292 2.292,-132.458c0.125,-10.75 -0.792,-21.417 -1.792,-32.042c-17.583,-6.792 -33.833,-18.583 -53.25,-18.792c-6.958,-0.417 -13.833,-1.792 -20.042,-5c-18.708,-8.042 -40.208,0.667 -58.792,-7.583c-25,-10.292 -53.583,1.75 -78.25,-9.542c-16.875,-4.458 -35.583,1.083 -51.75,-6.75c-14.042,-7.167 -31.042,-1.583 -45.125,-8.417c-12.917,-6.375 -28.542,-1.792 -41.208,-8.958c-12.125,-5.833 -26.667,-1.5 -38.792,-7.458c-10.708,-5.542 -23.167,-4.292 -34.708,-6.5c-0.708,-1.417 -2.167,-4.292 -2.875,-5.708c-26.375,-4.167 -52.292,-10.667 -78.5,-15.625c-14.667,-1.875 -29.583,-2.583 -43.833,-7c-22.375,-6.25 -45.667,-1.875 -68.5,-2.208c-24.458,0.25 -49.292,-1.75 -73.375,3.833m457.417,742.333c-53.458,31.667 -105.583,66.083 -162.75,90.875c-50.125,21.833 -101.875,43.875 -157.042,47.75c-12.667,2.333 -25.583,6.083 -38.5,3c-26.667,-6.917 -54.875,-3 -81.292,-11.292c-52.333,-6.167 -103.333,-19.75 -154.958,-30.125c-127.333,-31.125 -255.458,-60.917 -378.917,-105.583c-2.542,9.167 -5.458,18.292 -7.875,27.542c-6.167,24.542 -0.208,50.417 -7.375,74.792c-8.25,28.75 -0.208,59.208 -8.25,87.917c-5.625,22 -5.25,44.958 -3,67.417c26.5,1.958 53.375,0.542 79.25,7.792c47.292,4.292 95.5,-1.958 142.542,6.833c25.708,2.708 51.625,3.833 77.458,2.458c87.458,1.25 175.042,3.083 262.5,0c26.375,0.875 52.792,1.792 79.167,-0.042c44.417,-0.167 88.875,0.417 133.333,-0.083c34.542,-0.333 69.792,5.333 103.75,-3.583c18.917,-4.875 38.875,-3.167 57.708,-8.667c41.833,-7.958 84.167,-12 126,-19.792c9.375,-2.083 23.417,0.583 27.583,-10.625c3.667,-15.875 2.042,-32.292 2.333,-48.417c-0.667,-50 1.167,-100 -1.208,-149.958c-1.417,-31.542 8.583,-61.958 16.75,-91.958c-37.708,17.75 -71.083,43.125 -107.208,63.75Z" style="fill-rule:nonzero;"/><path d="M785.474,791.461c17.417,-34.333 45,-66.167 82.042,-79.458c21.083,-5.542 40.125,7.667 53.083,23.083c5.417,11.042 6.042,24.625 2.833,36.458c-5.833,10.917 -14.875,19.708 -23.833,28.125c19.25,-8.667 44.667,-11.5 62.292,2.125c17.708,12.167 15.792,37.708 9.625,55.625c-20.833,29.292 -56.75,48.042 -92.958,45.333c-24.667,1.875 -47.25,-9.125 -68.292,-20.542c-28.208,-20.292 -34.5,-59.125 -24.792,-90.75m98,19.75c-2.375,7.542 -2.625,15.417 -1.083,23.167c9.792,0 19.583,0 29.417,-0.333c-5.583,-7.833 -11.417,-15.5 -17.25,-23.125c-2.75,0.042 -8.333,0.208 -11.083,0.292Z" style="fill-rule:nonzero;"/><path d="M842.724,272.961c24.083,-5.583 48.917,-3.583 73.375,-3.833c22.833,0.333 46.125,-4.042 68.5,2.208c14.25,4.417 29.167,5.125 43.833,7c26.208,4.958 52.125,11.458 78.5,15.625c0.708,1.417 2.167,4.292 2.875,5.708c-30.542,-6.75 -61.833,-7.167 -92.875,-9.583c-53.75,-11.375 -108.875,-4.875 -163.333,-6.667c-42.333,1.333 -84.875,-11.333 -126.833,-1.083c-29.542,6.875 -60,2.75 -89.958,4.542c-14.25,0.708 -28.125,4.417 -42.375,5.167c4,-3.208 7.75,-7.792 13.417,-7.583c32.625,-2.792 66.042,3.25 98.125,-5.042c45.042,-9.125 91.5,0.708 136.75,-6.458Z" style="fill:#808080;fill-rule:nonzero;"/><path d="M503.766,379.044c38.958,-0.5 77.375,-9.25 116.417,-7.75c38.333,2.417 76.833,6.375 115.208,1.875c31.083,-4.542 62.083,2.417 93.208,1.917c56.042,-0.25 112.083,0.083 168.125,0.083c38,6.333 76.667,1.375 114.875,4.5c38,4.875 74.667,17.125 112.708,21.792c31.75,4.25 63.875,0.417 95.75,2.542c35.042,3.708 68.958,15.458 104.333,16.208c36.5,0.583 73.833,1.5 109.125,-9.5c0.042,44.167 -0.833,88.333 -2.292,132.458c-7.625,34.25 -6.792,69.542 -7.167,104.417c2.5,32.167 2.25,66.167 -12.708,95.417c-8.917,5.542 -19.417,7.833 -28.5,13.083c-8.5,7.708 -10.917,19.583 -16.458,29.292c-7.292,15.917 -24,23.583 -37.25,33.667c-59.417,43.625 -119.667,86.083 -180.792,127.208c-68.542,43.25 -140.583,85.125 -221.167,100.625c-38.125,13.625 -77.708,-0.833 -114.125,-12.708c-180.292,-67.167 -365.375,-122 -541.125,-200.833c-53.333,-24.583 -104.333,-53.792 -155.667,-82.208c-13.458,-8.417 -27.417,-16.417 -39.25,-27.042c-16.208,-26.458 -21.542,-58.292 -20,-88.958c1.25,-24.375 -2.625,-49.208 2,-73.208c13.167,-28.375 35.542,-50.667 57.208,-72.625c20.333,-19.917 33.958,-46.292 58,-62.417c23.458,-16.083 46.375,-34.375 74,-42.792c14.5,-1.083 29.042,-2 43.5,-3.5c37.25,-3.75 74.708,-0.75 112.042,-1.542m318.583,308.333c-15.875,10 -26.417,26.25 -40.5,38.417c-10.25,10.417 -27.083,15.875 -29.875,31.958c-4.625,21.292 -11.292,42.917 -9,64.917c4.792,25.75 18.542,53.25 44.833,62.458c7.542,3.667 15.667,0.958 22.458,-2.917c21.042,11.417 43.625,22.417 68.292,20.542c36.208,2.708 72.125,-16.042 92.958,-45.333c6.167,-17.917 8.083,-43.458 -9.625,-55.625c-17.625,-13.625 -43.042,-10.792 -62.292,-2.125c8.958,-8.417 18,-17.208 23.833,-28.125c3.208,-11.833 2.583,-25.417 -2.833,-36.458c8.375,3.208 14.208,-4.917 18.75,-10.625c4.833,-14.667 -2.792,-31.208 -16.792,-37.333c-32,-11.333 -68.458,-12.708 -100.208,0.25Z" style="fill:#808080;fill-rule:nonzero;"/><path d="M883.474,811.211c2.75,-0.083 8.333,-0.25 11.083,-0.292c5.833,7.625 11.667,15.292 17.25,23.125c-9.833,0.333 -19.625,0.333 -29.417,0.333c-1.542,-7.75 -1.292,-15.625 1.083,-23.167Z" style="fill:#808080;fill-rule:nonzero;"/><path d="M1300.141,1015.294c36.125,-20.625 69.5,-46 107.208,-63.75c-8.167,30 -18.167,60.417 -16.75,91.958c2.375,49.958 0.542,99.958 1.208,149.958c-0.292,16.125 1.333,32.542 -2.333,48.417c-4.167,11.208 -18.208,8.542 -27.583,10.625c-41.833,7.792 -84.167,11.833 -126,19.792c-18.833,5.5 -38.792,3.792 -57.708,8.667c-33.958,8.917 -69.208,3.25 -103.75,3.583c-44.458,0.5 -88.917,-0.083 -133.333,0.083c-26.375,1.833 -52.792,0.917 -79.167,0.042c-87.458,3.083 -175.042,1.25 -262.5,0c-25.833,1.375 -51.75,0.25 -77.458,-2.458c-47.042,-8.792 -95.25,-2.542 -142.542,-6.833c-25.875,-7.25 -52.75,-5.833 -79.25,-7.792c-2.25,-22.458 -2.625,-45.417 3,-67.417c8.042,-28.708 0,-59.167 8.25,-87.917c7.167,-24.375 1.208,-50.25 7.375,-74.792c2.417,-9.25 5.333,-18.375 7.875,-27.542c123.458,44.667 251.583,74.458 378.917,105.583c51.625,10.375 102.625,23.958 154.958,30.125c26.417,8.292 54.625,4.375 81.292,11.292c12.917,3.083 25.833,-0.667 38.5,-3c55.167,-3.875 106.917,-25.917 157.042,-47.75c57.167,-24.792 109.292,-59.208 162.75,-90.875Z" style="fill:#808080;fill-rule:nonzero;"/><path d="M726.766,282.336c41.958,-10.25 84.5,2.417 126.833,1.083c54.458,1.792 109.583,-4.708 163.333,6.667c31.042,2.417 62.333,2.833 92.875,9.583c11.542,2.208 24,0.958 34.708,6.5c12.125,5.958 26.667,1.625 38.792,7.458c12.667,7.167 28.292,2.583 41.208,8.958c14.083,6.833 31.083,1.25 45.125,8.417c16.167,7.833 34.875,2.292 51.75,6.75c24.667,11.292 53.25,-0.75 78.25,9.542c18.583,8.25 40.083,-0.458 58.792,7.583c6.208,3.208 13.083,4.583 20.042,5c19.417,0.208 35.667,12 53.25,18.792c1,10.625 1.917,21.292 1.792,32.042c-35.292,11 -72.625,10.083 -109.125,9.5c-35.375,-0.75 -69.292,-12.5 -104.333,-16.208c-31.875,-2.125 -64,1.708 -95.75,-2.542c-38.042,-4.667 -74.708,-16.917 -112.708,-21.792c-38.208,-3.125 -76.875,1.833 -114.875,-4.5c-19.375,-6.042 -39.542,-9.083 -59.833,-8.25c-118,0.875 -236.042,-0.958 -354.042,-0.292c-38.917,0.583 -77.75,5.167 -116.75,3.917c-39.625,-0.958 -80.458,-1.542 -117.875,13.542c-27.625,8.417 -50.542,26.708 -74,42.792c-24.042,16.125 -37.667,42.5 -58,62.417c-21.667,21.958 -44.042,44.25 -57.208,72.625c0.5,-21.917 -4.667,-45.167 4.958,-65.792c2.417,-29.25 11.792,-57.5 25.583,-83.417c15.333,-30.792 42.917,-54.208 74.125,-68c21.875,-7.875 43.583,-16.667 66.625,-20.5c16.042,-8.792 35.5,-3 51.625,-11.333c17.833,-6.708 38,0.375 55.458,-7.583c20,-7.208 41.667,-2.708 62.375,-4.708c8.667,-0.333 16.125,-6.167 24.917,-6.125c23.25,-0.75 46.5,-1.792 69.75,-2.417c14.25,-0.75 28.125,-4.458 42.375,-5.167c29.958,-1.792 60.417,2.333 89.958,-4.542Z" style="fill:#fff;fill-rule:nonzero;"/><path d="M822.349,687.377c31.75,-12.958 68.208,-11.583 100.208,-0.25c14,6.125 21.625,22.667 16.792,37.333c-4.542,5.708 -10.375,13.833 -18.75,10.625c-12.958,-15.417 -32,-28.625 -53.083,-23.083c-37.042,13.292 -64.625,45.125 -82.042,79.458c-9.708,31.625 -3.417,70.458 24.792,90.75c-6.792,3.875 -14.917,6.583 -22.458,2.917c-26.292,-9.208 -40.042,-36.708 -44.833,-62.458c-2.292,-22 4.375,-43.625 9,-64.917c2.792,-16.083 19.625,-21.542 29.875,-31.958c14.083,-12.167 24.625,-28.417 40.5,-38.417Z" style="fill:#fff;fill-rule:nonzero;"/><path d="M348.224,384.086c37.417,-15.083 78.25,-14.5 117.875,-13.542c39,1.25 77.833,-3.333 116.75,-3.917c118,-0.667 236.042,1.167 354.042,0.292c20.292,-0.833 40.458,2.208 59.833,8.25c-56.042,0 -112.083,-0.333 -168.125,-0.083c-31.125,0.5 -62.125,-6.458 -93.208,-1.917c-38.375,4.5 -76.875,0.542 -115.208,-1.875c-39.042,-1.5 -77.458,7.25 -116.417,7.75c-37.333,0.792 -74.792,-2.208 -112.042,1.542c-14.458,1.5 -29,2.417 -43.5,3.5Z" style="fill:#c0c0c0;fill-rule:nonzero;"/></svg>