<?xml version="1.0" encoding="UTF-8" standalone="no"?><!DOCTYPE svg PUBLIC "-//W3C//DTD SVG 1.1//EN" "http://www.w3.org/Graphics/SVG/1.1/DTD/svg11.dtd"><svg width="100%" height="100%" viewBox="0 0 1886 1857" version="1.1" xmlns="http://www.w3.org/2000/svg" xmlns:xlink="http://www.w3.org/1999/xlink" xml:space="preserve" xmlns:serif="http://www.serif.com/" style="fill-rule:evenodd;clip-rule:evenodd;stroke-linejoin:round;stroke-miterlimit:2;"><path d="M875.564,4.569c27.75,-6.542 56.417,-4.125 84.667,-4.167c18.25,-0.625 35.542,6.417 53.75,6.833c18.625,1.708 37.75,-1.292 55.958,3.833c17.667,5.5 36.625,3.958 54.25,9.583c92.542,16.5 181.958,48.458 266.292,89.75c64.958,33.667 125.167,75.917 181.833,122.042c28.375,27.25 55.667,55.583 83.667,83.167c122.25,137.958 202.375,313.667 224,496.75c7.833,25.333 3.083,52.167 4.667,78.25c1.875,29.125 1.667,58.333 0,87.5c-1.375,24.917 2.625,50.458 -4.042,74.875c-4.792,17.625 -2.875,36.417 -8.292,53.958c-25.5,138 -85.458,268.833 -169.542,380.958c-9.708,16.042 -23.708,28.667 -35.458,43.125c-23.167,34.542 -56,60.708 -84.25,90.875c-17.167,19.292 -39.667,32.417 -58.625,49.708c-65.333,52.958 -138,96.417 -214.25,131.75c-20.083,9.333 -35,27.667 -56.958,33.333c-25.167,8.667 -50.958,-6.25 -68.125,-23.833c-11,-15.083 -12.625,-34.25 -18.083,-51.5c-5.083,-13.833 -19.042,-27.083 -12.292,-42.75c8.292,-19.375 2.792,-41.375 10.667,-60.75c4.833,-15 3.667,-31 4.125,-46.458c-0.333,-24.25 1.667,-49.292 -7.125,-72.375c-12.667,-61.792 -36.833,-120.292 -59.375,-178.917c-8.542,-25.417 -21.167,-50.667 -18.75,-78.167c-0.375,-28.417 21,-58.083 50.667,-60.125c19.458,-3.875 38.042,3.417 54.792,12.542c19.042,0.917 35.917,-9.5 53.625,-14.792c47.792,-16.75 94.958,-37.458 135.292,-68.542c30.917,-26.958 47.417,-65.792 64.792,-102c20.917,-52.208 40.833,-105.125 53.458,-160c6.75,-17.083 3.375,-36.083 9.292,-53.292c5.292,-16.042 2.917,-33.208 3.375,-49.75c0.625,-15.333 -6.625,-29.333 -8.625,-44.292c-9.125,-30.083 -30.708,-57 -60.083,-69.375c-20.792,-10.792 -49.75,-18.875 -54.75,-45.292c-5.958,-29.083 13.042,-53.958 16.5,-81.833c1.125,-8.292 4.583,-15.958 5.75,-24.083c-16.333,-35.208 -29.708,-71.75 -43.167,-108.083c-25.375,2.542 -48.625,13.75 -72.375,22.208c-28.125,9.75 -53.542,26 -76.333,44.917c-23.125,20.667 -38.5,48.042 -56.542,72.875c-8.5,11.917 -25.167,14.75 -38.167,9.5c-14.125,-9.458 -23.625,-24.542 -38.708,-32.667c-21.667,-12.708 -44.75,-24.042 -69.208,-29.958c-22.542,-0.25 -43.375,-10.333 -65.917,-9.875c-36.833,-0.833 -74,-3.542 -110.5,2.333c-17.75,6.917 -37.25,5.708 -55.167,12.083c-35.542,6.833 -70.75,17.542 -102.792,34.667c-19.333,9.458 -38.542,22.792 -61.208,20.625c-24.542,-0.542 -42,-19.958 -61.792,-31.75c-26.458,-15.833 -52.25,-32.833 -79.917,-46.458c-3.417,37.167 -2.917,74.75 1.333,111.833c5.208,17.25 9.167,34.875 14,52.292c3,20.75 12.958,40.375 10.667,61.833c1.292,17.458 -9.25,33.542 -24.167,41.875c-10.958,1.833 -21.792,4.333 -32.708,6.458c-2.042,5 -4.125,10.083 -6.417,15.167c-7.417,18.083 -17.167,35.083 -25.125,52.958c-8.5,20.667 -12.625,42.708 -19.458,63.958c-3.458,21.625 -1.958,43.75 -1.458,65.625c12.208,70.625 43.292,138.5 90.125,193.042c14.042,20.625 36.125,33.292 54.083,50.083c27.167,20.375 55.708,38.875 84.083,57.458c28.042,16.208 59.375,31.5 92.708,27.458c17.792,0.042 45.625,-7.583 52.833,14.833c0.375,20.417 14.542,40.417 5.333,60.542c-9.208,31.625 -12.042,65 -24.667,95.667c-14.375,29.917 -49.667,38.583 -79.25,45.5c-32,2.333 -65.542,4.667 -96.25,-6.708c-37.292,-8.875 -64.125,-38.458 -88.25,-66.25c-13.583,-19.583 -28.875,-38 -48.375,-51.875c-30.375,-28.833 -62.375,-59 -103.333,-71.583c-9.917,-3.542 -20.542,-0.625 -30.708,-0.292c29.792,24.833 69.292,35.5 96.125,64.125c40.083,36.083 58.167,88.625 89.625,131.208c37.292,28.417 80.917,49.792 126.958,59.458c19.167,-5.125 36.792,-14.625 53.583,-24.958c14.917,-10.083 33.833,-8.667 51.042,-9.208c17.667,-0.792 32.917,10.875 42.542,24.792c4.833,16.167 7.208,33.333 2.875,49.958c-9.5,43.708 -3.083,88.583 -6.583,132.792c-6.292,9.25 -13.167,18.167 -20.125,27.042c5.167,12.417 9.333,26.708 3.875,39.875c-13.75,14.625 -36.792,23.042 -56.208,15.042c-58.458,-12.292 -114.458,-34.792 -167.792,-61.375c-58.375,-31.833 -115.542,-66.083 -168.542,-106.333c-26.083,-14.917 -44,-39.625 -65.75,-59.667c-18.125,-18.083 -36.417,-35.958 -55.042,-53.5c-4.042,-4.375 -7.625,-9.083 -10.875,-13.917c-6.375,-10.375 -13.75,-20.083 -22.208,-28.75c-3.542,-4 -7,-8.042 -10,-12.292c-4.875,-7.167 -10.083,-14 -15.208,-20.833c-0.208,-1.375 -0.625,-4.083 -0.833,-5.417c0.208,-5.667 -2.417,-8.792 -7.958,-9.292c0.667,-5.458 -1.667,-8.833 -7,-10.083c-9.25,-7.625 -16.5,-18.75 -18.292,-30.625c0.458,-5.458 -1.875,-8.958 -7.083,-10.417c-11.917,-13 -17.417,-30.25 -26.125,-45.292c-48.125,-89.625 -81.375,-187.625 -95.333,-288.375c-7.083,-20.917 -3.958,-43.208 -5.375,-64.75c-2.083,-38.875 -2.917,-77.875 0.208,-116.667c1.875,-23.208 -3.167,-47.292 4.875,-69.625c5.917,-18.292 1.875,-38.125 8.417,-56.25c23.75,-127.458 76.375,-249.25 151.25,-355.042c19.792,-25.917 37.917,-53.375 62.208,-75.458c27.667,-30.625 58.708,-57.917 87.625,-87.333c64.167,-53.583 133.792,-101.167 210,-136c73.667,-36.208 153.5,-57.792 233.458,-74.792c14,-4 28.792,-3.375 42.875,-7c23.583,-7.417 48.708,-3.542 72.792,-7.875m-74.917,98.125c-13.25,3.792 -27.125,3.917 -40.708,5.625c-78.167,15.208 -154.542,40.542 -225.167,77.583c-60.917,29 -118.417,65.5 -170,108.958c-23,15.625 -41.083,36.958 -60.958,56.167c-17.25,16.333 -29.375,37.042 -45.792,54.208c-85.25,102.583 -142.917,227.458 -167.667,358.417c-6.75,20.583 -3.958,42.75 -9.833,63.542c-5.417,20.667 -2.583,42.25 -3.042,63.417c1,28.792 -4.417,57.917 1.792,86.417c2.333,9.833 4.708,19.708 5.125,29.917c0.917,30.042 9.125,59.083 15.458,88.292c6,34.625 18.333,67.75 29.417,101c31.042,84.583 73.542,165.625 131.417,235.083c15.708,24.167 37.75,43 57.667,63.542c22.042,20.875 41.917,44.208 65.583,63.375c18.417,12.083 33.667,28.167 51.5,41.042c-5.917,-10.75 -12.667,-20.958 -19.917,-30.792c-26.208,-32.917 -33.875,-75.708 -55.5,-111.25c-16.292,-25.958 -30.792,-54.875 -56.792,-72.5c-16.333,-12.792 -31.125,-27.375 -48.333,-39c-16.208,-10.75 -27.5,-38.667 -9.042,-52.583c17.875,-12.792 35.625,-27 56.625,-34.167c18.5,-2.5 38.042,-2.458 55.75,4.208c34.625,11.75 68.708,29.083 93.708,56.333c26.792,28.75 56.958,54.417 81.292,85.458c15.292,19.833 38.25,36.125 64.125,36.333c26.125,0.375 54.292,3.625 77.75,-10.542c1.625,-19.042 6.458,-37.458 9.833,-56.167c-13.667,-3.875 -27.458,-7.583 -41.667,-8.583c-23.208,-1.292 -43.458,-13.917 -63.792,-23.833c-30.333,-14.625 -57.167,-35.125 -85.833,-52.5c-38.625,-26.875 -77.042,-56.25 -103.5,-95.792c-28.583,-38.292 -51.833,-81.125 -65.042,-127.167c-6.917,-26.292 -16.167,-52.75 -14.458,-80.292c1.333,-28.792 -5,-58.375 4.458,-86.292c14.875,-69.375 54.583,-131.292 104.167,-181.125c-4.667,-11.708 -10.125,-23 -15.875,-34.125c-19.292,-40.5 -33.708,-83.375 -42.292,-127.417c-4.292,-40.125 -4.042,-80.75 0.042,-120.875c6.792,-27.917 16.792,-57.208 40.292,-75.583c14.375,-14.875 37.25,-15.167 55.958,-9.833c34.083,10.917 58.792,38.875 79.583,66.625c13.25,19.75 32.792,34.125 46.208,53.792c8.667,12.917 19.167,24.5 30.667,35c27.875,-16.292 52.75,-37.417 82.375,-50.75c41.875,-23.417 88.25,-37.042 134.875,-47.208c24.792,-3 49.875,-2.458 74.792,-2.083c62,-0.25 123.625,15.417 178.958,43.208c17.458,8.792 28.333,26.167 45.458,35.625c20.958,-29.667 39.542,-62.75 70.458,-83.375c30.458,-25.375 65.708,-43.833 101.083,-61.208c19.917,-9.542 37.458,-23.583 58.5,-30.75c24.458,-7.167 55.125,1.125 67.542,24.75c18.875,32.708 26.375,70.25 35.917,106.375c4.417,16.417 11.208,32.333 13.625,49.292c5.375,32 -3.5,64 -3.25,96.125c28.875,7.167 55,22.417 77.208,41.958c41.5,43.5 60.875,103.125 67.167,161.833c1.458,25.125 -1.375,50.25 -0.833,75.417c0.708,16.875 -5.208,32.917 -6.75,49.583c-1.833,32.792 -12.958,63.958 -22.333,95.167c-12.5,42.792 -31.458,83.292 -54.167,121.542c-18.167,32.917 -44.292,60.625 -73.208,84.292c-67.208,52.917 -152.5,71.458 -233.375,92.583c17.625,45.792 26.375,94.333 34.917,142.458c9.833,34.333 5.875,70.5 6.583,105.792c2.083,51.792 -17.708,100.708 -33.875,148.958c30.708,-0.75 59.583,-12.833 88.167,-22.917c56.458,-20.292 108.833,-50.25 158.708,-83.208c58.167,-39.292 106.5,-90.333 154.667,-140.875c78.083,-97.708 134.375,-212.958 160.542,-335.417c6.125,-34.417 14.333,-68.5 14.292,-103.667c9.625,-43.542 8.417,-88.708 -0.208,-132.25c-0.333,-43.542 -12.333,-85.625 -21.167,-127.958c-33.458,-123 -95.375,-237.667 -176.333,-335.833c-38.208,-40.917 -77.917,-80.375 -119.042,-118.375c-34,-25.958 -67.625,-52.583 -104.542,-74.375c-35.708,-20.208 -70.75,-41.792 -108.333,-58.5c-75.417,-33.042 -154.917,-57.917 -236.708,-68.333c-29.125,-8.917 -59.75,-5.625 -89.667,-6.5c-29.125,-0.708 -58.292,-0.083 -87.458,0.208c-22.625,0.25 -45.708,-1.542 -67.792,4.5m-257.458,1563.75c18.333,11.542 38.375,19.875 57.917,29.083c19.75,8.792 38.792,20.417 60.75,22.75c-0.417,-12.375 -1.208,-24.625 -2.5,-36.833c-22.583,-0.875 -45.583,3.958 -67.75,-1.958c-16.042,-4.667 -32.125,-9.417 -48.417,-13.042Z" style="fill-rule:nonzero;"/><path d="M800.648,102.694c22.083,-6.042 45.167,-4.25 67.792,-4.5c29.167,-0.292 58.333,-0.917 87.458,-0.208c29.917,0.875 60.542,-2.417 89.667,6.5c81.792,10.417 161.292,35.292 236.708,68.333c37.583,16.708 72.625,38.292 108.333,58.5c36.917,21.792 70.542,48.417 104.542,74.375c41.125,38 80.833,77.458 119.042,118.375c80.958,98.167 142.875,212.833 176.333,335.833c8.833,42.333 20.833,84.417 21.167,127.958c8.625,43.542 9.833,88.708 0.208,132.25c0.042,35.167 -8.167,69.25 -14.292,103.667c-26.167,122.458 -82.458,237.708 -160.542,335.417c-48.167,50.542 -96.5,101.583 -154.667,140.875c-49.875,32.958 -102.25,62.917 -158.708,83.208c-28.583,10.083 -57.458,22.167 -88.167,22.917c16.167,-48.25 35.958,-97.167 33.875,-148.958c-0.708,-35.292 3.25,-71.458 -6.583,-105.792c-8.542,-48.125 -17.292,-96.667 -34.917,-142.458c80.875,-21.125 166.167,-39.667 233.375,-92.583c28.917,-23.667 55.042,-51.375 73.208,-84.292c22.708,-38.25 41.667,-78.75 54.167,-121.542c9.375,-31.208 20.5,-62.375 22.333,-95.167c1.542,-16.667 7.458,-32.708 6.75,-49.583c-0.542,-25.167 2.292,-50.292 0.833,-75.417c-6.292,-58.708 -25.667,-118.333 -67.167,-161.833c-22.208,-19.542 -48.333,-34.792 -77.208,-41.958c-0.25,-32.125 8.625,-64.125 3.25,-96.125c-2.417,-16.958 -9.208,-32.875 -13.625,-49.292c-9.542,-36.125 -17.042,-73.667 -35.917,-106.375c-12.417,-23.625 -43.083,-31.917 -67.542,-24.75c-21.042,7.167 -38.583,21.208 -58.5,30.75c-35.375,17.375 -70.625,35.833 -101.083,61.208c-30.917,20.625 -49.5,53.708 -70.458,83.375c-17.125,-9.458 -28,-26.833 -45.458,-35.625c-55.333,-27.792 -116.958,-43.458 -178.958,-43.208c-24.917,-0.375 -50,-0.917 -74.792,2.083c-46.625,10.167 -93,23.792 -134.875,47.208c-29.625,13.333 -54.5,34.458 -82.375,50.75c-11.5,-10.5 -22,-22.083 -30.667,-35c-13.417,-19.667 -32.958,-34.042 -46.208,-53.792c-20.792,-27.75 -45.5,-55.708 -79.583,-66.625c-18.708,-5.333 -41.583,-5.042 -55.958,9.833c-23.5,18.375 -33.5,47.667 -40.292,75.583c-4.083,40.125 -4.333,80.75 -0.042,120.875c8.583,44.042 23,86.917 42.292,127.417c5.75,11.125 11.208,22.417 15.875,34.125c-49.583,49.833 -89.292,111.75 -104.167,181.125c-9.458,27.917 -3.125,57.5 -4.458,86.292c-1.708,27.542 7.542,54 14.458,80.292c13.208,46.042 36.458,88.875 65.042,127.167c26.458,39.542 64.875,68.917 103.5,95.792c28.667,17.375 55.5,37.875 85.833,52.5c20.333,9.917 40.583,22.542 63.792,23.833c14.208,1 28,4.708 41.667,8.583c-3.375,18.708 -8.208,37.125 -9.833,56.167c-23.458,14.167 -51.625,10.917 -77.75,10.542c-25.875,-0.208 -48.833,-16.5 -64.125,-36.333c-24.333,-31.042 -54.5,-56.708 -81.292,-85.458c-25,-27.25 -59.083,-44.583 -93.708,-56.333c-17.708,-6.667 -37.25,-6.708 -55.75,-4.208c-21,7.167 -38.75,21.375 -56.625,34.167c-18.458,13.917 -7.167,41.833 9.042,52.583c17.208,11.625 32,26.208 48.333,39c26,17.625 40.5,46.542 56.792,72.5c21.625,35.542 29.292,78.333 55.5,111.25c7.25,9.833 14,20.042 19.917,30.792c-17.833,-12.875 -33.083,-28.958 -51.5,-41.042c-23.667,-19.167 -43.542,-42.5 -65.583,-63.375c-19.917,-20.542 -41.958,-39.375 -57.667,-63.542c-57.875,-69.458 -100.375,-150.5 -131.417,-235.083c-11.083,-33.25 -23.417,-66.375 -29.417,-101c-6.333,-29.208 -14.542,-58.25 -15.458,-88.292c-0.417,-10.208 -2.792,-20.083 -5.125,-29.917c-6.208,-28.5 -0.792,-57.625 -1.792,-86.417c0.458,-21.167 -2.375,-42.75 3.042,-63.417c5.875,-20.792 3.083,-42.958 9.833,-63.542c24.75,-130.958 82.417,-255.833 167.667,-358.417c16.417,-17.167 28.542,-37.875 45.792,-54.208c19.875,-19.208 37.958,-40.542 60.958,-56.167c51.583,-43.458 109.083,-79.958 170,-108.958c70.625,-37.042 147,-62.375 225.167,-77.583c13.583,-1.708 27.458,-1.833 40.708,-5.625Z" style="fill:#808080;fill-rule:nonzero;"/><path d="M445.689,755.819c10.917,-2.125 21.75,-4.625 32.708,-6.458c-12.958,7.375 -26.958,12.917 -39.125,21.625c2.292,-5.083 4.375,-10.167 6.417,-15.167Z" style="fill:#808080;fill-rule:nonzero;"/><path d="M128.689,1389.028c5.208,1.458 7.542,4.958 7.083,10.417c-8,0.458 -10.333,-3 -7.083,-10.417Z" style="fill:#808080;fill-rule:nonzero;"/><path d="M154.064,1430.069c5.333,1.25 7.667,4.625 7,10.083c-7.875,0.708 -10.208,-2.625 -7,-10.083Z" style="fill:#808080;fill-rule:nonzero;"/><path d="M161.064,1440.153c5.542,0.5 8.167,3.625 7.958,9.292c-7.917,1.125 -10.542,-1.958 -7.958,-9.292Z" style="fill:#808080;fill-rule:nonzero;"/><path d="M761.439,1546.819c12.417,14.625 8.042,34.833 8.375,52.417c0.375,23.875 -9.167,46.5 -8.417,70.417c-0.833,19.875 2.917,40.583 -3.667,59.917c3.5,-44.208 -2.917,-89.083 6.583,-132.792c4.333,-16.625 1.958,-33.792 -2.875,-49.958Z" style="fill:#808080;fill-rule:nonzero;"/><path d="M543.189,1666.444c16.292,3.625 32.375,8.375 48.417,13.042c22.167,5.917 45.167,1.083 67.75,1.958c1.292,12.208 2.083,24.458 2.5,36.833c-21.958,-2.333 -41,-13.958 -60.75,-22.75c-19.542,-9.208 -39.583,-17.542 -57.917,-29.083Z" style="fill:#808080;fill-rule:nonzero;"/><path d="M1292.814,435.236c23.75,-8.458 47,-19.667 72.375,-22.208c13.458,36.333 26.833,72.875 43.167,108.083c-1.167,8.125 -4.625,15.792 -5.75,24.083c-3.458,27.875 -22.458,52.75 -16.5,81.833c5,26.417 33.958,34.5 54.75,45.292c29.375,12.375 50.958,39.292 60.083,69.375c2,14.958 9.25,28.958 8.625,44.292c-0.458,16.542 1.917,33.708 -3.375,49.75c-5.917,17.208 -2.542,36.208 -9.292,53.292c-12.625,54.875 -32.542,107.792 -53.458,160c-17.375,36.208 -33.875,75.042 -64.792,102c-40.333,31.083 -87.5,51.792 -135.292,68.542c-17.708,5.292 -34.583,15.708 -53.625,14.792c-16.75,-9.125 -35.333,-16.417 -54.792,-12.542c-29.667,2.042 -51.042,31.708 -50.667,60.125c-2.417,27.5 10.208,52.75 18.75,78.167c22.542,58.625 46.708,117.125 59.375,178.917c8.792,23.083 6.792,48.125 7.125,72.375c-0.458,15.458 0.708,31.458 -4.125,46.458c-7.875,19.375 -2.375,41.375 -10.667,60.75c-6.75,15.667 7.208,28.917 12.292,42.75c5.458,17.25 7.083,36.417 18.083,51.5c-9.958,13.333 -27.542,9.042 -40.667,16.708c-9.917,3.625 -21.417,1.375 -30.833,6.792c-12.708,6.792 -28.667,1.25 -40.917,9.458c-15.583,5.625 -33.25,-0.875 -48.833,5.583c-14.542,7.417 -31.375,4.458 -47.083,5.25c-55.542,-0.583 -111.125,1.083 -166.583,-0.917c-16.208,-7.583 -34.292,-6.25 -51.625,-8.833c-13.083,-8.625 -29.833,-3.792 -43.167,-11.458c-55.167,-12.292 -109.458,-31.458 -160.958,-55.833c-11.333,-5.583 -22.625,-11.333 -34.5,-15.542c-0.25,-1.417 -0.792,-4.208 -1.042,-5.583c-0.333,-2.083 -1.083,-6.25 -1.417,-8.333c53.333,26.583 109.333,49.083 167.792,61.375c19.417,8 42.458,-0.417 56.208,-15.042c5.458,-13.167 1.292,-27.458 -3.875,-39.875c6.958,-8.875 13.833,-17.792 20.125,-27.042c6.583,-19.333 2.833,-40.042 3.667,-59.917c-0.75,-23.917 8.792,-46.542 8.417,-70.417c-0.333,-17.583 4.042,-37.792 -8.375,-52.417c-9.625,-13.917 -24.875,-25.583 -42.542,-24.792c-17.208,0.542 -36.125,-0.875 -51.042,9.208c-16.792,10.333 -34.417,19.833 -53.583,24.958c-46.042,-9.667 -89.667,-31.042 -126.958,-59.458c-31.458,-42.583 -49.542,-95.125 -89.625,-131.208c-26.833,-28.625 -66.333,-39.292 -96.125,-64.125c10.167,-0.333 20.792,-3.25 30.708,0.292c40.958,12.583 72.958,42.75 103.333,71.583c19.5,13.875 34.792,32.292 48.375,51.875c24.125,27.792 50.958,57.375 88.25,66.25c30.708,11.375 64.25,9.042 96.25,6.708c29.583,-6.917 64.875,-15.583 79.25,-45.5c12.625,-30.667 15.458,-64.042 24.667,-95.667c9.208,-20.125 -4.958,-40.125 -5.333,-60.542c-7.208,-22.417 -35.042,-14.792 -52.833,-14.833c-33.333,4.042 -64.667,-11.25 -92.708,-27.458c-28.375,-18.583 -56.917,-37.083 -84.083,-57.458c-17.958,-16.792 -40.042,-29.458 -54.083,-50.083c-46.833,-54.542 -77.917,-122.417 -90.125,-193.042c-0.5,-21.875 -2,-44 1.458,-65.625c6.833,-21.25 10.958,-43.292 19.458,-63.958c7.958,-17.875 17.708,-34.875 25.125,-52.958c12.167,-8.708 26.167,-14.25 39.125,-21.625c14.917,-8.333 25.458,-24.417 24.167,-41.875c2.292,-21.458 -7.667,-41.083 -10.667,-61.833c-4.833,-17.417 -8.792,-35.042 -14,-52.292c-4.25,-37.083 -4.75,-74.667 -1.333,-111.833c27.667,13.625 53.458,30.625 79.917,46.458c19.792,11.792 37.25,31.208 61.792,31.75c22.667,2.167 41.875,-11.167 61.208,-20.625c32.042,-17.125 67.25,-27.833 102.792,-34.667c17.917,-6.375 37.417,-5.167 55.167,-12.083c36.5,-5.875 73.667,-3.167 110.5,-2.333c22.542,-0.458 43.375,9.625 65.917,9.875c24.458,5.917 47.542,17.25 69.208,29.958c15.083,8.125 24.583,23.208 38.708,32.667c13,5.25 29.667,2.417 38.167,-9.5c18.042,-24.833 33.417,-52.208 56.542,-72.875c22.792,-18.917 48.208,-35.167 76.333,-44.917Z" style="fill:#fff;fill-rule:nonzero;"/><path d="M169.856,1454.861c5.125,6.833 10.333,13.667 15.208,20.833c-9.333,-2.917 -11.5,-13.167 -15.208,-20.833Z" style="fill:#c0c0c0;fill-rule:nonzero;"/><path d="M195.064,1487.986c8.458,8.667 15.833,18.375 22.208,28.75c-8.75,-8.083 -22.417,-15.417 -22.208,-28.75Z" style="fill:#c0c0c0;fill-rule:nonzero;"/><path d="M228.148,1530.653c18.625,17.542 36.917,35.417 55.042,53.5c21.75,20.042 39.667,44.75 65.75,59.667c53,40.25 110.167,74.5 168.542,106.333c0.333,2.083 1.083,6.25 1.417,8.333c-11.917,0.792 -21.125,-7.042 -31.208,-11.958c-33,-19.125 -64.75,-40.25 -95.917,-62.167c-14.125,-12.708 -32.042,-20.708 -44.292,-35.5c-9.208,-12.083 -24.208,-16.958 -35.125,-27.042c-11.542,-10.792 -22.542,-22.083 -33.667,-33.25c-17.5,-18.708 -38.292,-34.917 -50.542,-57.917Z" style="fill:#c0c0c0;fill-rule:nonzero;"/></svg>