<?xml version="1.0" encoding="UTF-8" standalone="no"?><!DOCTYPE svg PUBLIC "-//W3C//DTD SVG 1.1//EN" "http://www.w3.org/Graphics/SVG/1.1/DTD/svg11.dtd"><svg width="100%" height="100%" viewBox="0 0 1544 1635" version="1.1" xmlns="http://www.w3.org/2000/svg" xmlns:xlink="http://www.w3.org/1999/xlink" xml:space="preserve" xmlns:serif="http://www.serif.com/" style="fill-rule:evenodd;clip-rule:evenodd;stroke-linejoin:round;stroke-miterlimit:2;"><path d="M1340.926,14.475c4.458,-5.417 7.125,-14.875 15.75,-13.958c21.375,-4.125 36.375,17.833 57.542,16.125c25.417,-0.458 49.833,7.125 75.042,8.75c18.875,4.292 40.75,8.75 51.583,26.708c3.167,11.583 3.042,24.542 -0.542,36.083c-7.917,10.75 -20.333,19.042 -33.958,19.5c-22.958,1.75 -46,0.208 -68.958,1.083c5.375,15.042 7.75,30.917 12.333,46.25c4.083,26.667 -1.167,54.208 5.5,80.667c9.375,32.083 -0.083,66.125 8.25,98.417c8.708,27.042 0.958,56.042 8.208,83.375c8.5,27.042 1.458,55.917 8.625,83.25c9.042,30.375 0.292,62.542 7.5,93.25c10.5,32.417 1.083,67 8.333,100c8.583,31.667 4.125,64.792 5.25,97.125c-1.167,32.333 3.458,65.5 -5.375,97.083c-5.208,23.708 0.042,48.667 -7.875,71.917c-5.25,43.25 -18.75,88.958 -52.5,118.75c-18.458,19.875 -44.208,30.125 -69.167,39.208c-56.458,22.5 -112.792,46.542 -172.667,58.542c14.333,34.833 1.375,73.417 13.083,108.75c5.125,19.25 0.833,39.792 6.875,59c6.25,19.792 2.667,41.333 10.5,60.833c7.667,46.625 16.417,93.208 28.75,138.917c2.792,11.042 10.708,19.667 17.375,28.625c8.875,9.125 5.917,22.917 5.458,34.458c-1.167,10.25 -10.792,16.75 -18,23.083c-27.208,9.625 -61.167,4.208 -80.167,-18.792c-24.75,-34.875 -37.417,-76.167 -50.208,-116.458c-10.75,-36.375 -19.958,-73.208 -27.833,-110.25c-2.208,-8.042 -10.667,-10.958 -18.208,-10.375c-66.708,0.75 -133.667,-2.917 -200.333,0.792c-27.542,7.583 -56.583,5.833 -83.833,14.75c-15.042,2.583 -29.417,8.667 -44.833,8.833c-17.208,0.333 -34.25,2.542 -50.917,6.667c-38.583,3.792 -77.5,-0.083 -116.125,2.542c-35.042,3 -70.167,2.292 -105.25,1.875c-19.458,45.917 -41.292,90.75 -61.208,136.458c-9.5,19.083 -27.25,43.875 -51.833,33.917c-7,-7.25 -14.708,-15.875 -14.375,-26.583c-0.333,-15.208 -1.542,-31.042 4,-45.5c19.542,-62.625 43.75,-123.625 65.083,-185.625c19.083,-47.708 30.292,-97.958 45.5,-146.875c-56.292,-1.833 -111.042,-21 -159.792,-48.583c-21.333,-10.833 -36.667,-29.792 -53.542,-46.167c-17.208,-16.542 -26.875,-38.833 -35.667,-60.542c-14.542,-34.875 -22.542,-71.958 -31.25,-108.583c-0.75,-22.333 -4.042,-44.292 -8.583,-66.083c-1.667,-70.958 -0.375,-141.958 -0.583,-212.917c0.625,-25.958 -1.417,-52.333 4.417,-77.833c5.667,-33.625 2.917,-67.833 4.042,-101.708c0,-12.75 5.75,-24.417 7.042,-36.917c3.125,-24.583 -2.333,-50 5.208,-74c8.833,-29.625 -1.125,-61.542 9.417,-90.792c3.708,-11.625 3.083,-23.833 1.792,-35.708c-32.708,-2.708 -66.208,3.25 -98.25,-5.417c-19,-3.792 -39.125,-0.958 -57.292,-8.583c-21.625,-5.917 -40.25,-21.583 -50.667,-41.208c-6,-21.667 -5.958,-48.208 11.708,-64.583c16,-20.25 42.292,-23.833 65.917,-28.458c41.833,-3.208 84.583,3.75 125.75,-6.75c40.125,-5.833 81.042,1.208 121.167,-5.125c60.083,-13.417 122.75,2.458 182.75,-11.792c66.208,-6.333 133.542,3.792 199.292,-8.708c43.042,-2.625 86.25,-1.375 129.375,-1.75c43.208,-0.542 87.042,2.458 129.708,-6.208c40.042,-4.042 80.375,-0.75 120.542,-2.625c18.167,-0.583 35.375,-7.875 53.625,-7.667c29.25,-0.708 58.583,0.792 87.833,-1.333c36.542,-2 73.125,-0.083 109.667,-1.125m-95.292,97.833c-24.125,7.667 -51,-0.75 -74.458,9.667c-21.875,6.875 -45.958,-1.792 -67.083,7.583c-29.292,8.375 -61.167,-2.042 -89.708,9.542c-33.208,4.708 -67.708,-1.917 -99.875,8.708c-27.833,3.958 -56.417,-0.208 -83.958,4.333c-23.375,2.667 -46.792,5.458 -70.417,4.292c-19.958,-1.833 -38.125,9.083 -57.958,8.333c-15.708,1.083 -34.125,-4.083 -46.708,8.25c-17.917,2.708 -36.583,-0.125 -54.125,4.417c-22.583,11.25 -49.292,0.208 -71.75,11.417c-19.333,4.375 -39.375,1.25 -58.792,4.167c-32.292,15.083 -69.667,-1.167 -101.917,13.5c-15.5,4.208 -31.667,2.917 -47.542,3.667c-7.292,47.333 -0.542,95.625 -4.625,143.292c-12.292,37.75 -0.208,78.75 -9.875,117c-5.458,11.667 -3.833,24.75 -4.125,37.25c0.458,19.417 -1.667,38.75 -1.708,58.167c0.417,15.625 -7.708,30 -6.417,45.792c0.125,76.208 -1.333,152.542 0.667,228.667c9.875,18.792 3.375,41.292 13.333,60.167c2.917,22.125 13.333,42.208 20.75,63.083c14.375,17.25 31.625,36.917 56.125,36.333c11.792,-0.5 21.708,7.542 33.417,7.125c77.375,-0.167 154.792,0.875 232.125,-1.542c24.917,-5.833 50.625,-3.542 76,-4.542c27.792,-0.833 55.583,-0.208 83.375,-1.375c30.75,-2.708 61.833,1.625 92.458,-2.667c19.875,-6.708 41.125,-4.125 61.708,-5.708c25.667,-2.083 51.5,0.667 77.167,-1.958c29.292,-10.625 61.208,-4.625 91.542,-8.5c17.75,-8.167 37.5,-3.917 56.167,-7.208c9.333,-3.417 18.5,-7.375 28.542,-8.208c36.458,-11.667 73.083,-24.458 106.083,-44.292c7.833,-24.542 18.875,-48.125 22.167,-73.792c10.25,-18.125 2.583,-40.208 11.625,-58.667c5.542,-32.583 -1.333,-67 9.292,-98.792c4.625,-156.417 3.792,-313.042 2.083,-469.542c-3.042,-37.167 0.167,-74.333 0.333,-111.458c-23.792,-4.083 -47.75,0.625 -71.667,-0.375c-17.375,0.75 -35.625,-2.667 -52.25,3.875m-665.5,1072.583c-7.875,29.208 -19.458,57.333 -33.167,84.292c-7.417,15.083 -17,29.375 -20.833,46.042c16.292,2.708 32.333,-1 47.917,-5.375c30.042,-3.917 61,2.042 90.625,-5.875c26.375,-7.583 54.458,-0.042 80.833,-7.625c20.792,-7.333 43.542,-2.75 64.542,-9.125c20.375,-6.292 41.917,-2.667 62.833,-4.583c66.25,-4.625 132.667,5.125 198.875,-1.208c-3.125,-29.25 -10.75,-57.917 -20.375,-85.625c-1.375,-7.5 -10.583,-5 -15.792,-5.625c-72.333,-1.083 -144.583,5 -216.875,0.708c-43.042,-2.208 -86.75,3.333 -129.167,-6.292c-36.417,-0.208 -73.208,-5.583 -109.417,0.292Z" style="fill-rule:nonzero;"/><path d="M1028.301,401.142c15.708,-10.875 30.708,-22.833 46.917,-32.917c11.667,-7.292 27.167,-3.375 33.708,8.792c4.292,19.625 -15.917,31.667 -24.292,46.917c-20.208,33.875 -43.792,65.458 -67.542,96.833c-12.875,15.75 -22.375,34.042 -37.792,47.708c-11.583,18.542 -26,34.792 -41.708,49.917c-11.583,18.667 -26.333,34.708 -41.542,50.417c-9.5,17.5 -23.625,31.458 -37.458,45.542c-14.542,15.958 -36.25,28.917 -58.542,24.917c-23.708,-5.792 -47.667,-10.792 -70.708,-19c-21.583,-6.583 -41.083,-24.083 -64.292,-22.167c-31.25,24.708 -55.25,57.083 -83.875,84.583c-18.917,18 -35.917,38.125 -56.292,54.5c-17.083,10.583 -35,23.167 -56.208,21.583c-22.458,1.667 -41.292,-12.875 -55.875,-28.25c-5.417,-17.042 -14.167,-35.208 -7.042,-53.125c16.917,-46.875 49.75,-85.083 77.5,-125.708c14.708,-21.542 32.042,-41.25 45.625,-63.5c12.958,-16.167 22.042,-35.333 37.708,-49.25c13.792,-14.25 27.667,-29.25 46.792,-36.333c19.875,-5.667 40.25,-14.208 61.292,-9.333c18.25,6.542 37.792,10.208 54.417,20.708c42.583,24.833 72.458,66.333 94.083,109.75c16.458,-23.417 37.25,-43.458 52.292,-67.875c13.833,-14.042 26.917,-28.75 37.583,-45.417c25.875,-28.25 53.875,-54.5 80.75,-81.792c10.125,-10.792 22.542,-18.917 34.5,-27.5Z" style="fill-rule:nonzero;"/><path d="M760.134,156.434c23.625,1.167 47.042,-1.625 70.417,-4.292c-23.875,13.292 -52.125,2.958 -77.667,9.167c-31.833,8.958 -65.333,4.042 -97.417,11.708c12.583,-12.333 31,-7.167 46.708,-8.25c19.833,0.75 38,-10.167 57.958,-8.333Z" style="fill:#808080;fill-rule:nonzero;"/><path d="M1245.634,112.309c16.625,-6.542 34.875,-3.125 52.25,-3.875c23.917,1 47.875,-3.708 71.667,0.375c-0.167,37.125 -3.375,74.292 -0.333,111.458c1.708,156.5 2.542,313.125 -2.083,469.542c-10.625,31.792 -3.75,66.208 -9.292,98.792c-9.042,18.458 -1.375,40.542 -11.625,58.667c-3.292,25.667 -14.333,49.25 -22.167,73.792c-33,19.833 -69.625,32.625 -106.083,44.292c-10.042,0.833 -19.208,4.792 -28.542,8.208c-18.667,3.292 -38.417,-0.958 -56.167,7.208c-30.333,3.875 -62.25,-2.125 -91.542,8.5c-25.667,2.625 -51.5,-0.125 -77.167,1.958c-20.583,1.583 -41.833,-1 -61.708,5.708c-30.625,4.292 -61.708,-0.042 -92.458,2.667c-27.792,1.167 -55.583,0.542 -83.375,1.375c-25.375,1 -51.083,-1.292 -76,4.542c-77.333,2.417 -154.75,1.375 -232.125,1.542c-11.708,0.417 -21.625,-7.625 -33.417,-7.125c-24.5,0.583 -41.75,-19.083 -56.125,-36.333c-7.417,-20.875 -17.833,-40.958 -20.75,-63.083c-9.958,-18.875 -3.458,-41.375 -13.333,-60.167c-2,-76.125 -0.542,-152.458 -0.667,-228.667c-1.292,-15.792 6.833,-30.167 6.417,-45.792c0.042,-19.417 2.167,-38.75 1.708,-58.167c0.292,-12.5 -1.333,-25.583 4.125,-37.25c9.667,-38.25 -2.417,-79.25 9.875,-117c4.083,-47.667 -2.667,-95.958 4.625,-143.292c15.875,-0.75 32.042,0.542 47.542,-3.667c32.25,-14.667 69.625,1.583 101.917,-13.5c19.417,-2.917 39.458,0.208 58.792,-4.167c22.458,-11.208 49.167,-0.167 71.75,-11.417c17.542,-4.542 36.208,-1.708 54.125,-4.417c32.083,-7.667 65.583,-2.75 97.417,-11.708c25.542,-6.208 53.792,4.125 77.667,-9.167c27.542,-4.542 56.125,-0.375 83.958,-4.333c32.167,-10.625 66.667,-4 99.875,-8.708c28.542,-11.583 60.417,-1.167 89.708,-9.542c21.125,-9.375 45.208,-0.708 67.083,-7.583c23.458,-10.417 50.333,-2 74.458,-9.667m-186.125,110.833c-7,3.833 -17.417,4.208 -21,12.375c-10.375,25.458 -12.083,53.375 -11.958,80.625c0.333,28.333 -1.042,56.75 1.75,85c-11.958,8.583 -24.375,16.708 -34.5,27.5c-26.875,27.292 -54.875,53.542 -80.75,81.792c-10.667,16.667 -23.75,31.375 -37.583,45.417c-11.958,8.667 -21.333,20.208 -30.958,31.292c-1.083,-28.583 0.792,-57.417 -4.083,-85.708c-8.958,-44.375 -2.625,-89.958 -6.625,-134.75c-2.167,-16.25 -13.542,-34.5 -31.875,-34.125c-22.458,-2.125 -38.5,16.292 -55.042,28.375c-13.083,11.375 -32.5,20 -35.083,39.167c-4.75,31.833 0.833,64.042 -1.958,96c-11.667,-1.625 -23.375,-3.167 -35.167,-2.833c-21.042,-4.875 -41.417,3.667 -61.292,9.333c-19.125,7.083 -33,22.083 -46.792,36.333c-15.667,13.917 -24.75,33.083 -37.708,49.25c-6.167,4.917 -12.292,9.833 -18.375,14.917c0,-16.083 1.625,-32.417 -1.875,-48.167c-7.208,-18.208 -31.083,-27.417 -48.625,-18.25c-18.5,9.083 -27.375,28.958 -38.333,45.292c-13.333,19.75 -19.333,43.625 -19.167,67.333c-0.208,42.667 -0.292,85.458 3.25,128.083c-7.125,17.917 1.625,36.083 7.042,53.125c1.958,15.542 9.583,31.125 25.083,36.917c23.083,9.75 52.917,23.917 75.75,6.125c12.042,-8.083 14.125,-23.208 11.25,-36.375c20.375,-16.375 37.375,-36.5 56.292,-54.5c28.625,-27.5 52.625,-59.875 83.875,-84.583c23.208,-1.917 42.708,15.583 64.292,22.167c-0.125,11.5 1.5,23 3.458,34.417c4.167,24.417 -0.292,50.625 11.083,73.542c6.375,16.917 24.5,32.167 43.417,26.75c16.833,-4.208 34.125,-5.458 51.292,-7.5c17.083,-2.167 29.417,-18.75 29.875,-35.417c2.583,-32.75 0.958,-66.458 -9.875,-97.708c13.833,-14.083 27.958,-28.042 37.458,-45.542c15.208,-15.708 29.958,-31.75 41.542,-50.417c15.708,-15.125 30.125,-31.375 41.708,-49.917c15.417,-13.667 24.917,-31.958 37.792,-47.708c2.208,0.833 6.625,2.417 8.833,3.25c3.5,27.958 -0.875,56.5 5.292,84.25c7.25,32.833 1.708,66.583 4.958,99.792c1.583,19.417 7.458,38.292 7.083,57.917c0.75,17.792 -2.292,36.75 5.25,53.542c8.625,20.833 35.042,33.708 56.417,25.083c22.792,-8.333 46.042,-15.458 68.625,-24.333c14.875,-5.792 22.25,-22 21.667,-37.25c-0.5,-36.458 0,-73.25 -7.542,-109.042c-4.417,-42.75 -0.667,-85.833 -1.958,-128.708c-1.667,-40.625 1.75,-81.667 -6.167,-121.792c-4.375,-46.708 -1.292,-93.833 -1.958,-140.708c-0.708,-20.208 3.083,-43.667 -11.042,-60.375c-17.708,-19.458 -46.5,-28.125 -72.042,-21.792c-12.917,5.458 -21.542,17.958 -35,22.542Z" style="fill:#fff;fill-rule:nonzero;"/><path d="M1059.509,223.142c13.458,-4.583 22.083,-17.083 35,-22.542c25.542,-6.333 54.333,2.333 72.042,21.792c14.125,16.708 10.333,40.167 11.042,60.375c0.667,46.875 -2.417,94 1.958,140.708c7.917,40.125 4.5,81.167 6.167,121.792c1.292,42.875 -2.458,85.958 1.958,128.708c7.542,35.792 7.042,72.583 7.542,109.042c0.583,15.25 -6.792,31.458 -21.667,37.25c-22.583,8.875 -45.833,16 -68.625,24.333c-21.375,8.625 -47.792,-4.25 -56.417,-25.083c-7.542,-16.792 -4.5,-35.75 -5.25,-53.542c0.375,-19.625 -5.5,-38.5 -7.083,-57.917c-3.25,-33.208 2.292,-66.958 -4.958,-99.792c-6.167,-27.75 -1.792,-56.292 -5.292,-84.25c-2.208,-0.833 -6.625,-2.417 -8.833,-3.25c23.75,-31.375 47.333,-62.958 67.542,-96.833c8.375,-15.25 28.583,-27.292 24.292,-46.917c-6.542,-12.167 -22.042,-16.083 -33.708,-8.792c-16.208,10.083 -31.208,22.042 -46.917,32.917c-2.792,-28.25 -1.417,-56.667 -1.75,-85c-0.125,-27.25 1.583,-55.167 11.958,-80.625c3.583,-8.167 14,-8.542 21,-12.375Z" style="fill:#c0c0c0;fill-rule:nonzero;"/><path d="M746.884,360.934c16.542,-12.083 32.583,-30.5 55.042,-28.375c18.333,-0.375 29.708,17.875 31.875,34.125c4,44.792 -2.333,90.375 6.625,134.75c4.875,28.292 3,57.125 4.083,85.708c9.625,-11.083 19,-22.625 30.958,-31.292c-15.042,24.417 -35.833,44.458 -52.292,67.875c-21.625,-43.417 -51.5,-84.917 -94.083,-109.75c-16.625,-10.5 -36.167,-14.167 -54.417,-20.708c11.792,-0.333 23.5,1.208 35.167,2.833c2.792,-31.958 -2.792,-64.167 1.958,-96c2.583,-19.167 22,-27.792 35.083,-39.167Z" style="fill:#c0c0c0;fill-rule:nonzero;"/><path d="M460.009,536.684c17.542,-9.167 41.417,0.042 48.625,18.25c3.5,15.75 1.875,32.083 1.875,48.167c6.083,-5.083 12.208,-10 18.375,-14.917c-13.583,22.25 -30.917,41.958 -45.625,63.5c-27.75,40.625 -60.583,78.833 -77.5,125.708c-3.542,-42.625 -3.458,-85.417 -3.25,-128.083c-0.167,-23.708 5.833,-47.583 19.167,-67.333c10.958,-16.333 19.833,-36.208 38.333,-45.292Z" style="fill:#c0c0c0;fill-rule:nonzero;"/><path d="M800.051,739.267c22.292,4 44,-8.958 58.542,-24.917c10.833,31.25 12.458,64.958 9.875,97.708c-0.458,16.667 -12.792,33.25 -29.875,35.417c-17.167,2.042 -34.458,3.292 -51.292,7.5c-18.917,5.417 -37.042,-9.833 -43.417,-26.75c-11.375,-22.917 -6.917,-49.125 -11.083,-73.542c-1.958,-11.417 -3.583,-22.917 -3.458,-34.417c23.042,8.208 47,13.208 70.708,19Z" style="fill:#c0c0c0;fill-rule:nonzero;"/><path d="M412.801,830.517c14.583,15.375 33.417,29.917 55.875,28.25c21.208,1.583 39.125,-11 56.208,-21.583c2.875,13.167 0.792,28.292 -11.25,36.375c-22.833,17.792 -52.667,3.625 -75.75,-6.125c-15.5,-5.792 -23.125,-21.375 -25.083,-36.917Z" style="fill:#c0c0c0;fill-rule:nonzero;"/></svg>